<svg width="18" height="17" viewBox="0 0 18 17" fill="none" xmlns="http://www.w3.org/2000/svg">
<path d="M10.7 11.05C10.7933 11.05 10.8833 11.08 10.97 11.14C11.0633 11.2 11.11 11.26 11.11 11.32C10.81 11.92 10.4067 12.3933 9.9 12.74C9.4 13.08 8.85667 13.25 8.27 13.25C7.73 13.25 7.26 13.1033 6.86 12.81C6.46 12.51 6.15 12.09 5.93 11.55C5.71 11.01 5.6 10.37 5.6 9.63C5.6 8.93667 5.69 8.30333 5.87 7.73C6.05 7.15667 6.30333 6.66333 6.63 6.25C6.96333 5.83 7.35667 5.50667 7.81 5.28C8.26333 5.05333 8.76333 4.94 9.31 4.94C9.94333 4.94 10.4433 5.10333 10.81 5.43C11.1833 5.75667 11.37 6.19667 11.37 6.75C11.37 7.03667 11.3167 7.29 11.21 7.51C11.1033 7.73 10.9533 7.90333 10.76 8.03C10.5733 8.15667 10.3567 8.22 10.11 8.22C10.0567 8.22 9.99333 8.21333 9.92 8.2C9.84667 8.18667 9.76333 8.16667 9.67 8.14C9.78333 8.02 9.88333 7.87333 9.97 7.7C10.0567 7.52667 10.1233 7.34333 10.17 7.15C10.2233 6.95667 10.25 6.77333 10.25 6.6C10.25 6.25333 10.16 5.98667 9.98 5.8C9.80667 5.61333 9.56333 5.52 9.25 5.52C8.89667 5.52 8.56333 5.63 8.25 5.85C7.94333 6.06333 7.67 6.36333 7.43 6.75C7.19667 7.13 7.01333 7.57333 6.88 8.08C6.74667 8.58 6.68 9.11667 6.68 9.69C6.68 10.2767 6.75667 10.7867 6.91 11.22C7.06333 11.6533 7.28 11.9867 7.56 12.22C7.84 12.4533 8.17 12.57 8.55 12.57C8.96333 12.57 9.36333 12.4333 9.75 12.16C10.1367 11.8867 10.4533 11.5167 10.7 11.05Z" fill="#778574"/>
<path d="M9 1L16.6085 6.52786L13.7023 15.4721H4.29772L1.39155 6.52786L9 1Z" stroke="#778574"/>
</svg>
