<svg width="16" height="16" viewBox="0 0 16 16" fill="none" xmlns="http://www.w3.org/2000/svg">
<circle cx="8" cy="8" r="7.5" stroke="#778574"/>
<path d="M10.27 9.855C10.3727 9.855 10.4717 9.888 10.567 9.954C10.6697 10.02 10.721 10.086 10.721 10.152C10.391 10.812 9.94733 11.3327 9.39 11.714C8.84 12.088 8.24233 12.275 7.597 12.275C7.003 12.275 6.486 12.1137 6.046 11.791C5.606 11.461 5.265 10.999 5.023 10.405C4.781 9.811 4.66 9.107 4.66 8.293C4.66 7.53033 4.759 6.83367 4.957 6.203C5.155 5.57233 5.43367 5.02967 5.793 4.575C6.15967 4.113 6.59233 3.75733 7.091 3.508C7.58967 3.25867 8.13967 3.134 8.741 3.134C9.43767 3.134 9.98767 3.31367 10.391 3.673C10.8017 4.03233 11.007 4.51633 11.007 5.125C11.007 5.44033 10.9483 5.719 10.831 5.961C10.7137 6.203 10.5487 6.39367 10.336 6.533C10.1307 6.67233 9.89233 6.742 9.621 6.742C9.56233 6.742 9.49267 6.73467 9.412 6.72C9.33133 6.70533 9.23967 6.68333 9.137 6.654C9.26167 6.522 9.37167 6.36067 9.467 6.17C9.56233 5.97933 9.63567 5.77767 9.687 5.565C9.74567 5.35233 9.775 5.15067 9.775 4.96C9.775 4.57867 9.676 4.28533 9.478 4.08C9.28733 3.87467 9.01967 3.772 8.675 3.772C8.28633 3.772 7.91967 3.893 7.575 4.135C7.23767 4.36967 6.937 4.69967 6.673 5.125C6.41633 5.543 6.21467 6.03067 6.068 6.588C5.92133 7.138 5.848 7.72833 5.848 8.359C5.848 9.00433 5.93233 9.56533 6.101 10.042C6.26967 10.5187 6.508 10.8853 6.816 11.142C7.124 11.3987 7.487 11.527 7.905 11.527C8.35967 11.527 8.79967 11.3767 9.225 11.076C9.65033 10.7753 9.99867 10.3683 10.27 9.855Z" fill="#778574"/>
</svg>
