<svg width="16" height="16" viewBox="0 0 16 16" fill="none" xmlns="http://www.w3.org/2000/svg">
<g clip-path="url(#clip0_3_9)">
<path d="M0.979333 5.71885L8 0.618034L15.0207 5.71885L12.339 13.9721H3.66099L0.979333 5.71885Z" fill="#A9B4A7" stroke="#535F50"/>
<path d="M9.7 10.05C9.79333 10.05 9.88333 10.08 9.97 10.14C10.0633 10.2 10.11 10.26 10.11 10.32C9.81 10.92 9.40667 11.3933 8.9 11.74C8.4 12.08 7.85667 12.25 7.27 12.25C6.73 12.25 6.26 12.1033 5.86 11.81C5.46 11.51 5.15 11.09 4.93 10.55C4.71 10.01 4.6 9.37 4.6 8.63C4.6 7.93667 4.69 7.30333 4.87 6.73C5.05 6.15667 5.30333 5.66333 5.63 5.25C5.96333 4.83 6.35667 4.50667 6.81 4.28C7.26333 4.05333 7.76333 3.94 8.31 3.94C8.94333 3.94 9.44333 4.10333 9.81 4.43C10.1833 4.75667 10.37 5.19667 10.37 5.75C10.37 6.03667 10.3167 6.29 10.21 6.51C10.1033 6.73 9.95333 6.90333 9.76 7.03C9.57333 7.15667 9.35667 7.22 9.11 7.22C9.05667 7.22 8.99333 7.21333 8.92 7.2C8.84667 7.18667 8.76333 7.16667 8.67 7.14C8.78333 7.02 8.88333 6.87333 8.97 6.7C9.05667 6.52667 9.12333 6.34333 9.17 6.15C9.22333 5.95667 9.25 5.77333 9.25 5.6C9.25 5.25333 9.16 4.98667 8.98 4.8C8.80667 4.61333 8.56333 4.52 8.25 4.52C7.89667 4.52 7.56333 4.63 7.25 4.85C6.94333 5.06333 6.67 5.36333 6.43 5.75C6.19667 6.13 6.01333 6.57333 5.88 7.08C5.74667 7.58 5.68 8.11667 5.68 8.69C5.68 9.27667 5.75667 9.78667 5.91 10.22C6.06333 10.6533 6.28 10.9867 6.56 11.22C6.84 11.4533 7.17 11.57 7.55 11.57C7.96333 11.57 8.36333 11.4333 8.75 11.16C9.13667 10.8867 9.45333 10.5167 9.7 10.05Z" fill="#535F50"/>
</g>
<defs>
<clipPath id="clip0_3_9">
<rect width="16" height="16" fill="white"/>
</clipPath>
</defs>
</svg>
